<svg width="248" height="195" viewBox="0 0 248 195" fill="none" xmlns="http://www.w3.org/2000/svg">
  <rect width="248" height="195" fill="none" />
  <path
    d="M198.669 93.6947C162.329 87.2308 158.768 89.2352 145.438 123.655C151.902 87.3148 149.898 83.7536 115.478 70.4244C151.818 76.8883 155.379 74.8839 168.709 40.4641C162.245 76.8043 164.249 80.3655 198.669 93.6947Z"
    fill="#5E4676" />
  <path
    d="M194.362 122.404C176.332 120.825 174.68 121.958 169.664 139.348C171.243 121.319 170.109 119.666 152.72 114.65C170.749 116.23 172.402 115.096 177.418 97.7061C175.838 115.736 176.972 117.388 194.362 122.404Z"
    fill="white" />
  <path
    d="M135.118 39.3562C135.118 39.3562 126.191 52.5011 134.352 74.9143C134.421 75.1047 134.478 75.2989 134.519 75.4972C134.908 77.356 136.562 86.8054 130.908 90.4818C125.445 94.034 129.225 108.395 130.307 112.088C130.456 112.596 130.698 113.067 131.013 113.492C132.606 115.647 137.566 124.553 129.924 144.634C129.709 145.196 129.608 145.795 129.635 146.396C129.693 147.703 129.921 150.136 130.783 152.47C131.763 155.126 129.964 157.994 127.148 158.3L71.0442 164.393C67.9261 164.732 65.4842 161.773 66.3968 158.772C66.7886 157.484 66.9745 156.285 66.7038 155.494C65.8062 152.871 62.2008 150.145 61.7597 144.951C61.3193 139.763 49.2222 132.035 54.5751 108.369C54.5876 108.314 54.6006 108.261 54.615 108.207C54.7821 107.571 55.9894 102.648 53.6644 101.268C51.1773 99.7925 43.7666 91.9868 46.6138 73.8631C49.0677 58.2432 41.7684 51.7216 39.7048 50.2178C39.328 49.9432 38.9967 49.6138 38.7239 49.2358C38.4928 48.9155 38.2616 48.5953 38.0305 48.275"
    fill="url(#paint0_linear_493_927)" />
  <path
    d="M42.72 47.8768C42.9033 48.1529 43.919 49.5483 44.3317 49.8843C46.3149 51.4992 52.8606 58.0965 50.7546 73.5115C48.2828 91.6033 55.1159 99.458 57.4009 100.951C59.6858 102.444 58.3043 107.96 58.3043 107.96C53.5327 131.645 64.6797 139.471 65.1208 144.665C65.5619 149.86 68.8785 152.61 69.7183 155.238C69.9072 155.829 69.8655 156.645 69.6874 157.554C68.9853 161.138 72.0304 164.354 75.66 163.952L123.385 158.662C127.487 157.774 128.77 156.423 129.102 155.257C129.696 153.165 127.33 151.307 127.357 146.632C127.36 146.112 127.393 145.596 127.521 144.594C128.475 137.185 130.901 132.805 131.402 126.72C131.839 121.413 130.62 117.127 130.1 115.359C128.645 110.409 127.422 110.641 126.409 106.661C124.338 98.5229 127.786 91.0116 127.995 90.5705C129.781 86.8108 131.374 86.2949 132.059 82.8027C132.719 79.4383 131.831 76.9035 131.091 74.231C128.587 65.1911 128.409 56.8678 128.801 52.3763C129.062 49.3811 129.853 44.9264 132.438 39.5838C102.532 42.3482 72.626 45.1125 42.72 47.8768V47.8768Z"
    fill="url(#paint1_linear_493_927)" />
  <path
    d="M39.1776 49.8646L34.5374 50.2586C29.7608 49.9109 29.5355 34.9901 37.9261 35.1254C40.9514 35.1742 46.0004 38.826 46.0004 38.826C46.0004 38.826 51.5181 32.2843 58.2525 36.0986C64.9869 39.9129 71.9549 14.6914 108.749 30.7986C108.749 30.7986 116.334 24.7563 123.517 29.8821C123.517 29.8821 124.244 30.4951 125.22 30.0748C126.197 29.6545 132.77 19.6493 139.488 31.225C139.488 31.225 140.392 37.8962 135.118 39.3562"
    fill="url(#paint2_linear_493_927)" />
  <path
    d="M39.1488 49.5296C38.4708 49.4544 36.7839 49.1732 35.2934 47.8326C34.6773 47.2785 33.3661 46.0992 33.3056 44.29C33.2368 42.2333 34.8338 40.8443 35.3375 40.4061C36.741 39.1855 38.302 38.9474 38.9178 38.8618C42.9376 38.3029 46.0929 41.3213 46.591 41.8123C48.1301 40.0732 50.3652 38.1736 53.0346 38.2286C55.286 38.275 55.7863 39.6692 58.23 39.8118C61.766 40.0183 62.9427 37.2291 66.0989 37.1193C68.9464 37.0202 69.4766 39.3589 73.1967 41.2402C77.0763 43.202 80.7311 42.9212 85.7901 42.5326C91.7959 42.0712 95.8939 41.7564 98.9618 38.715C100.487 37.2026 102.962 34.1187 103.617 33.9336C106.166 33.2133 107.086 35.3339 110.124 35.068C114.088 34.7211 115.163 30.8783 118.549 30.9787C120.371 31.0327 121.911 32.2002 123.115 33.5378C123.115 33.5378 123.826 34.0859 124.789 33.6999C126.097 33.1755 129.554 29.9638 132.538 29.6929C132.82 29.6673 134.714 29.5247 136.081 30.8395C137.307 32.0176 137.369 33.6532 137.371 34.104C137.38 34.6742 137.318 36.1227 136.287 37.2326C135.69 37.8748 134.998 38.1567 134.362 38.4082C132.848 39.0069 131.535 38.9975 131.376 38.9992C129.296 39.0206 92.1349 43.3093 39.1488 49.5296Z"
    fill="url(#paint3_linear_493_927)" />
  <path
    d="M52.8834 48.3634C54.9095 64.9702 57.4663 82.324 60.6705 100.336C64.6548 122.732 69.2329 143.858 74.1429 163.635C90.9846 161.98 107.826 160.325 124.668 158.67C124.923 119.285 125.177 79.9006 125.432 40.5161C101.249 43.1319 77.0663 45.7476 52.8834 48.3634Z"
    fill="url(#paint4_linear_493_927)" fill-opacity="0.7" />
  <g style="mix-blend-mode:multiply" opacity="0.5">
    <path d="M54.4454 60.2981L52.8569 48.4298L125.367 40.5303L125.229 54.8684L54.4454 60.2981Z"
      fill="url(#paint5_linear_493_927)" />
  </g>
  <path d="M57.0557 161.716L58.6257 169.307L140.496 162.355L140.801 154.605L57.0557 161.716Z"
    fill="url(#paint6_linear_493_927)" />
  <path opacity="0.5"
    d="M96.242 142.127C108.238 141.108 117.597 135.979 117.146 130.672C116.695 125.364 106.606 121.887 94.6098 122.905C82.6141 123.924 73.255 129.052 73.7057 134.36C74.1564 139.668 84.2463 143.145 96.242 142.127Z"
    fill="#7B2319" />
  <path
    d="M85.9566 39.5148C85.8402 39.9103 85.3017 39.9636 85.1101 39.5984L82.0028 33.6768C81.1171 31.6924 81.6793 29.5677 83.0976 28.6345C83.9586 28.068 85.1574 27.926 86.1215 28.3777C87.6726 29.1044 88.5194 31.322 87.7049 33.5734C87.1221 35.5538 86.5393 37.5343 85.9566 39.5148V39.5148Z"
    fill="#FFDDB7" />
  <path
    d="M90.9309 38.9655C90.6574 39.1153 90.3403 38.8564 90.4326 38.5584L91.9287 33.7262C92.5135 32.1899 93.949 31.3513 95.2073 31.6084C95.9711 31.7645 96.6894 32.3284 96.9649 33.0852C97.4082 34.3027 96.6781 35.9432 95.0397 36.7148C93.6701 37.465 92.3005 38.2153 90.9309 38.9655V38.9655Z"
    fill="#FFDDB7" />
  <path
    d="M80.2539 39.8721C80.5488 39.9736 80.8176 39.6649 80.6764 39.3868L78.387 34.876C77.5515 33.4603 75.9952 32.8758 74.7983 33.3414C74.0717 33.624 73.4588 34.3009 73.3148 35.0934C73.0832 36.3682 74.0794 37.8621 75.8245 38.3464C77.3009 38.855 78.7774 39.3635 80.2539 39.8721V39.8721Z"
    fill="#FFDDB7" />
  <path d="M101.331 130.879L83.2167 122.217L80.0638 125.129L100.054 133.632L101.331 130.879Z"
    fill="url(#paint7_linear_493_927)" />
  <path
    d="M68.6016 92.4781C68.6016 92.4781 84.5013 97.3066 88.3776 100.689L101.331 130.879L83.2163 122.217L68.6016 92.4781Z"
    fill="url(#paint8_linear_493_927)" />
  <path
    d="M101.33 130.879C101.965 129.464 102.465 127.573 102.353 125.125L116.253 119.411L119.448 121.785L117.605 122.319C109.01 124.81 104.459 132.125 104.459 132.125C103.376 131.796 101.291 130.967 101.33 130.879Z"
    fill="url(#paint9_linear_493_927)" />
  <path
    d="M88.3774 100.689C88.3774 100.689 101.387 87.0497 110.86 87.3787L116.253 119.411C116.253 119.411 112.443 121.341 108.672 123.739C104.752 126.232 101.33 130.879 101.33 130.879C101.331 130.879 100.905 129.891 100.86 129.786C100.613 129.212 97.907 122.906 88.3774 100.689V100.689Z"
    fill="url(#paint10_linear_493_927)" />
  <path d="M68.6022 92.4782L83.217 122.217L80.0641 125.129L66.3588 97.2022L68.6022 92.4782Z"
    fill="url(#paint11_linear_493_927)" />
  <path d="M110.86 87.3787L114.116 90.1246L119.449 121.785L116.254 119.411L110.86 87.3787Z"
    fill="url(#paint12_linear_493_927)" />
  <path
    d="M163.863 35.5536C163.863 35.5536 167.102 30.0711 160.95 32.6123L139.449 49.6467C138.761 50.1509 138.005 50.8369 137.332 51.7608C134.867 55.1465 135.415 59.1276 135.614 60.2673C134.95 59.6217 134.233 58.6974 133.985 57.4749C133.573 55.4447 134.692 53.772 134.432 53.6213C134.017 53.3815 131.157 57.6044 130.625 58.3872C125.135 66.4614 124.454 66.3456 121.354 70.9812C119.925 73.1184 118.049 76.5322 116.877 81.5274C116.877 81.5274 116.505 84.7387 115.518 82.0207C114.532 79.3028 115.918 72.9547 115.918 72.9547C115.918 72.9547 116.142 71.0279 113.545 76.5849C110.948 82.1419 107.709 87.6244 108.054 90.2679C108.398 92.9114 109.012 98.8406 117.017 97.1649C125.022 95.4893 132.71 85.3153 132.71 85.3153C132.71 85.3153 130.216 84.3753 127.572 84.7198C124.929 85.0642 135.158 81.0429 136.592 79.9072C138.025 78.7716 139.459 77.636 138.174 77.4871C136.89 77.3382 132.962 77.5338 133.11 76.2493C133.259 74.9648 138.965 76.277 141.264 73.2891C143.563 70.3011 146.802 64.8186 146.802 64.8186L145.816 62.1007L149.744 61.9051L163.863 35.5536Z"
    fill="url(#paint13_linear_493_927)" />
  <path
    d="M105.008 103.873L152.622 49.9567L152.914 49.9905L100.842 112.775C100.842 112.775 106.102 105.251 105.008 103.873Z"
    fill="#37498B" />
  <path
    d="M88.6089 77.894C82.9545 78.9313 82.5441 79.4178 82.4751 85.1662C81.4378 79.5118 80.9513 79.1014 75.203 79.0324C80.8574 77.9951 81.2677 77.5086 81.3368 71.7602C82.374 77.4146 82.8606 77.825 88.6089 77.894Z"
    fill="white" />
  <path
    d="M85.733 88.4233C74.9159 90.4077 74.1309 91.3384 73.9988 102.335C72.0144 91.5181 71.0837 90.7331 60.0869 90.601C70.904 88.6167 71.689 87.6859 71.8211 76.6891C73.8055 87.5062 74.7362 88.2913 85.733 88.4233Z"
    fill="url(#paint14_linear_493_927)" />
  <defs>
    <linearGradient id="paint0_linear_493_927" x1="86.5458" y1="43.4806" x2="96.6285" y2="162.222"
      gradientUnits="userSpaceOnUse">
      <stop offset="0.160235" stop-color="#E96F26" />
      <stop offset="0.474056" stop-color="#F9AB53" />
      <stop offset="0.925883" stop-color="#E96F26" />
    </linearGradient>
    <linearGradient id="paint1_linear_493_927" x1="87.5505" y1="43.3953" x2="97.6291" y2="162.088"
      gradientUnits="userSpaceOnUse">
      <stop stop-color="#A54A14" />
      <stop offset="0.253031" stop-color="#C55B1B" />
      <stop offset="0.562777" stop-color="#D8621B" />
      <stop offset="1" stop-color="#A64C16" />
    </linearGradient>
    <linearGradient id="paint2_linear_493_927" x1="83.8453" y1="21.2112" x2="86.0414" y2="45.8853"
      gradientUnits="userSpaceOnUse">
      <stop stop-color="#FFD177" />
      <stop offset="0.69207" stop-color="#EC8446" />
    </linearGradient>
    <linearGradient id="paint3_linear_493_927" x1="84.8806" y1="33.7396" x2="86.032" y2="46.9679"
      gradientUnits="userSpaceOnUse">
      <stop stop-color="#C05616" />
      <stop offset="1" stop-color="#D16422" stop-opacity="0" />
    </linearGradient>
    <linearGradient id="paint4_linear_493_927" x1="86.7993" y1="14.9588" x2="101.505" y2="188.144"
      gradientUnits="userSpaceOnUse">
      <stop offset="0.177083" stop-color="#37498B" />
      <stop offset="0.619792" stop-color="#7D5863" />
      <stop offset="0.880353" stop-color="#E96F26" />
    </linearGradient>
    <linearGradient id="paint5_linear_493_927" x1="88.4055" y1="38.4416" x2="90.6416" y2="64.775"
      gradientUnits="userSpaceOnUse">
      <stop stop-color="#664F64" />
      <stop offset="1" stop-color="#664F64" stop-opacity="0" />
    </linearGradient>
    <linearGradient id="paint6_linear_493_927" x1="98.479" y1="152.565" x2="99.9316" y2="169.672"
      gradientUnits="userSpaceOnUse">
      <stop offset="0.108026" stop-color="#F9AB53" />
      <stop offset="0.412331" stop-color="#E96F26" />
      <stop offset="1" stop-color="#917F96" />
    </linearGradient>
    <linearGradient id="paint7_linear_493_927" x1="79.0004" y1="122.782" x2="104.382" y2="133.2"
      gradientUnits="userSpaceOnUse">
      <stop offset="0.358551" stop-color="#EBBDA1" />
      <stop offset="1" stop-color="#C89A7F" />
    </linearGradient>
    <linearGradient id="paint8_linear_493_927" x1="83.2302" y1="91.236" x2="101.922" y2="132.325"
      gradientUnits="userSpaceOnUse">
      <stop stop-color="#FFE2D0" />
      <stop offset="1" stop-color="#FCC8A8" />
    </linearGradient>
    <linearGradient id="paint9_linear_493_927" x1="122.339" y1="122.57" x2="104.275" y2="134.51"
      gradientUnits="userSpaceOnUse">
      <stop stop-color="#F3C9AE" />
      <stop offset="0.979126" stop-color="#D2A488" />
    </linearGradient>
    <linearGradient id="paint10_linear_493_927" x1="100.459" y1="88.1894" x2="109.469" y2="129.3"
      gradientUnits="userSpaceOnUse">
      <stop stop-color="#FFE2D0" />
      <stop offset="1" stop-color="#FFD3B9" />
    </linearGradient>
    <linearGradient id="paint11_linear_493_927" x1="64.8196" y1="93.6364" x2="76.1256" y2="125.463"
      gradientUnits="userSpaceOnUse">
      <stop offset="0.380208" stop-color="#ECC6AF" />
      <stop offset="1" stop-color="#E8B291" />
    </linearGradient>
    <linearGradient id="paint12_linear_493_927" x1="113.674" y1="87.1398" x2="121.19" y2="121.801"
      gradientUnits="userSpaceOnUse">
      <stop stop-color="#EDC7B0" />
      <stop offset="1" stop-color="#E8B392" />
    </linearGradient>
    <linearGradient id="paint13_linear_493_927" x1="154.343" y1="50.829" x2="110.499" y2="100.349"
      gradientUnits="userSpaceOnUse">
      <stop stop-color="#FFFEFE" />
      <stop offset="1" stop-color="#CEBCBC" />
    </linearGradient>
    <linearGradient id="paint14_linear_493_927" x1="71.8211" y1="76.6891" x2="75.0677" y2="113.917"
      gradientUnits="userSpaceOnUse">
      <stop offset="0.0600098" stop-color="#FFF3E4" />
      <stop offset="0.463611" stop-color="#F9AB53" />
      <stop offset="1" stop-color="#E96F26" />
    </linearGradient>
  </defs>
</svg>