<svg width="188" height="167" viewBox="0 0 188 167" fill="none" xmlns="http://www.w3.org/2000/svg">
<path fill-rule="evenodd" clip-rule="evenodd" d="M41.3624 148.216L175.912 90.9863C176.83 90.5946 177.554 89.8568 177.926 88.9349C178.298 88.0129 178.286 86.9821 177.894 86.0685L142.419 3.6264C142.125 2.94616 141.572 2.40949 140.881 2.13413C140.19 1.85877 139.417 1.8672 138.732 2.15759L2.37388 60.1563C1.70133 60.4433 1.17073 60.9838 0.898494 61.6592C0.626261 62.3346 0.634625 63.0899 0.921751 63.7592L36.416 146.245C36.81 147.158 37.552 147.878 38.4794 148.247C39.4067 148.617 40.4435 148.605 41.3624 148.216ZM44.2939 141.824L169.691 88.488C171.529 87.7062 172.425 85.6778 171.689 83.9665L140.796 12.1748C140.241 10.8847 138.663 10.3142 137.278 10.9032L10.1957 64.9565C8.83357 65.5359 8.16975 67.0398 8.71589 68.309L39.6248 140.139C40.3612 141.85 42.4557 142.606 44.2939 141.824Z" fill="white" fill-opacity="0.3"/>
<path d="M170.165 88.817L44.7682 142.153C42.93 142.935 40.8354 142.179 40.099 140.468L9.19013 68.638C8.644 67.3688 9.30781 65.8649 10.6699 65.2855L137.753 11.2322C139.137 10.6432 140.715 11.2137 141.271 12.5037L172.163 84.2954C172.9 86.0068 172.003 88.0352 170.165 88.817Z" fill="white" fill-opacity="0.1"/>
<path d="M142.536 4.03241L1.05749 64.209L0.302929 62.4554C-0.0899868 61.5387 -0.101094 60.5044 0.272041 59.5795C0.645176 58.6546 1.37208 57.9146 2.29329 57.5219L136.818 0.303102C137.74 -0.0881111 138.78 -0.0997981 139.711 0.270605C140.641 0.641007 141.386 1.36325 141.782 2.27888L142.536 4.03241Z" fill="#6C63FF"/>
<path d="M6.25834 59.8951C6.79858 59.8951 7.23653 59.4596 7.23653 58.9225C7.23653 58.3854 6.79858 57.95 6.25834 57.95C5.7181 57.95 5.28015 58.3854 5.28015 58.9225C5.28015 59.4596 5.7181 59.8951 6.25834 59.8951Z" fill="white"/>
<path d="M9.67204 58.4431C10.2123 58.4431 10.6502 58.0077 10.6502 57.4706C10.6502 56.9335 10.2123 56.498 9.67204 56.498C9.1318 56.498 8.69385 56.9335 8.69385 57.4706C8.69385 58.0077 9.1318 58.4431 9.67204 58.4431Z" fill="white"/>
<path d="M13.0857 56.9911C13.626 56.9911 14.0639 56.5557 14.0639 56.0186C14.0639 55.4815 13.626 55.0461 13.0857 55.0461C12.5455 55.0461 12.1075 55.4815 12.1075 56.0186C12.1075 56.5557 12.5455 56.9911 13.0857 56.9911Z" fill="white"/>
<path d="M69.3966 82.5934L52.6736 89.7064C51.7547 90.096 50.7178 90.1073 49.7905 89.7379C48.8632 89.3684 48.1212 88.6483 47.7272 87.7356L38.4958 66.2828C38.104 65.3692 38.0926 64.3383 38.4642 63.4164C38.8358 62.4945 39.56 61.7567 40.4781 61.365L57.2011 54.252C58.12 53.8624 59.1568 53.8511 60.0841 54.2206C61.0114 54.59 61.7535 55.3101 62.1475 56.2228L71.3788 77.6756C71.7707 78.5892 71.7821 79.6201 71.4105 80.542C71.0389 81.464 70.3146 82.2017 69.3966 82.5934Z" fill="white" fill-opacity="0.5"/>
<path d="M97.6931 70.5578L80.9701 77.6707C80.0512 78.0603 79.0143 78.0717 78.087 77.7022C77.1597 77.3327 76.4177 76.6127 76.0237 75.7L66.7924 54.2471C66.4005 53.3335 66.3891 52.3027 66.7607 51.3807C67.1323 50.4588 67.8566 49.7211 68.7746 49.3293L85.4976 42.2164C86.4165 41.8268 87.4533 41.8155 88.3806 42.1849C89.3079 42.5544 90.05 43.2744 90.444 44.1871L99.6753 65.64C100.067 66.5536 100.079 67.5844 99.707 68.5064C99.3354 69.4283 98.6111 70.166 97.6931 70.5578V70.5578Z" fill="white" fill-opacity="0.5"/>
<path d="M125.99 58.5221L109.267 65.6351C108.348 66.0247 107.311 66.0361 106.384 65.6666C105.456 65.2971 104.714 64.5771 104.32 63.6644L95.0889 42.2115C94.697 41.2979 94.6856 40.2671 95.0572 39.3451C95.4288 38.4232 96.1531 37.6855 97.0711 37.2938L113.794 30.1808C114.713 29.7912 115.75 29.7798 116.677 30.1493C117.604 30.5188 118.347 31.2388 118.741 32.1515L127.972 53.6044C128.364 54.518 128.375 55.5488 128.004 56.4707C127.632 57.3927 126.908 58.1304 125.99 58.5221Z" fill="white" fill-opacity="0.5"/>
<path d="M83.6786 115.784L66.9556 122.897C66.0367 123.286 64.9999 123.297 64.0726 122.928C63.1453 122.559 62.4032 121.838 62.0092 120.926L52.7779 99.4729C52.386 98.5593 52.3746 97.5285 52.7462 96.6066C53.1178 95.6846 53.8421 94.9469 54.7601 94.5552L71.4831 87.4422C72.402 87.0526 73.4389 87.0413 74.3662 87.4107C75.2935 87.7802 76.0355 88.5003 76.4295 89.413L85.6609 110.866C86.0528 111.779 86.0641 112.81 85.6925 113.732C85.3209 114.654 84.5967 115.392 83.6786 115.784Z" fill="#F2F2F2"/>
<path d="M111.975 103.748L95.2521 110.861C94.3332 111.251 93.2964 111.262 92.3691 110.892C91.4418 110.523 90.6997 109.803 90.3057 108.89L81.0744 87.4373C80.6825 86.5237 80.6711 85.4929 81.0427 84.571C81.4143 83.649 82.1386 82.9113 83.0566 82.5196L99.7796 75.4066C100.699 75.017 101.735 75.0056 102.663 75.3751C103.59 75.7445 104.332 76.4646 104.726 77.3773L113.957 98.8302C114.349 99.7438 114.361 100.775 113.989 101.697C113.617 102.619 112.893 103.356 111.975 103.748V103.748Z" fill="#F2F2F2"/>
<path d="M140.272 91.7123L123.549 98.8253C122.63 99.2149 121.593 99.2262 120.666 98.8568C119.738 98.4873 118.996 97.7673 118.602 96.8546L109.371 75.4017C108.979 74.4881 108.968 73.4573 109.339 72.5353C109.711 71.6134 110.435 70.8756 111.353 70.4839L128.076 63.371C128.995 62.9813 130.032 62.97 130.959 63.3395C131.887 63.7089 132.629 64.429 133.023 65.3417L142.254 86.7945C142.646 87.7081 142.657 88.739 142.286 89.6609C141.914 90.5829 141.19 91.3206 140.272 91.7123Z" fill="white" fill-opacity="0.5"/>
<g filter="url(#filter0_b)">
<path fill-rule="evenodd" clip-rule="evenodd" d="M15.768 166.87H162.114C163.113 166.868 164.071 166.473 164.777 165.771C165.483 165.069 165.881 164.117 165.882 163.123V73.4535C165.881 72.7132 165.585 72.0036 165.058 71.4801C164.532 70.9567 163.818 70.6623 163.074 70.6614H14.7605C14.0286 70.6623 13.3269 70.9517 12.8094 71.4662C12.2919 71.9808 12.0008 72.6784 12 73.406V163.123C12.0011 164.117 12.3985 165.069 13.1049 165.771C13.8113 166.473 14.769 166.868 15.768 166.87ZM20.9916 162.14H157.382C159.381 162.14 161.008 160.625 161.008 158.764V80.6782C161.008 79.2751 159.783 78.1334 158.277 78.1334H20.0526C18.571 78.1334 17.3657 79.2566 17.3657 80.637V158.764C17.3657 160.625 18.9923 162.14 20.9916 162.14Z" fill="white" fill-opacity="0.3"/>
</g>
<g filter="url(#filter1_b)">
<path d="M157.016 161.668H20.6259C18.6266 161.668 17 160.153 17 158.292V80.165C17 78.7846 18.2053 77.6614 19.6869 77.6614H157.911C159.417 77.6614 160.642 78.8031 160.642 80.2063V158.292C160.642 160.153 159.016 161.668 157.016 161.668Z" fill="white" fill-opacity="0.1"/>
</g>
<path d="M165.947 73.6648H12.0652V71.7575C12.0666 70.761 12.4656 69.8058 13.1746 69.1013C13.8835 68.3969 14.8446 68.0008 15.8469 68H162.166C163.168 68.0008 164.129 68.3969 164.838 69.1013C165.547 69.8058 165.946 70.761 165.947 71.7575V73.6648Z" fill="#6C63FF"/>
<path d="M18.9379 71.8106C19.4781 71.8106 19.9161 71.3751 19.9161 70.838C19.9161 70.3009 19.4781 69.8655 18.9379 69.8655C18.3977 69.8655 17.9597 70.3009 17.9597 70.838C17.9597 71.3751 18.3977 71.8106 18.9379 71.8106Z" fill="white"/>
<path d="M22.651 71.8106C23.1913 71.8106 23.6292 71.3751 23.6292 70.838C23.6292 70.3009 23.1913 69.8655 22.651 69.8655C22.1108 69.8655 21.6729 70.3009 21.6729 70.838C21.6729 71.3751 22.1108 71.8106 22.651 71.8106Z" fill="white"/>
<path d="M26.3639 71.8106C26.9042 71.8106 27.3421 71.3751 27.3421 70.838C27.3421 70.3009 26.9042 69.8655 26.3639 69.8655C25.8237 69.8655 25.3857 70.3009 25.3857 70.838C25.3857 71.3751 25.8237 71.8106 26.3639 71.8106Z" fill="white"/>
<path d="M150.117 99.8572H85.4957C82.9084 99.8572 80.811 101.942 80.811 104.515V104.515C80.811 107.087 82.9084 109.172 85.4957 109.172H150.117C152.704 109.172 154.802 107.087 154.802 104.515C154.802 101.942 152.704 99.8572 150.117 99.8572Z" fill="white" fill-opacity="0.8"/>
<path d="M150.117 115.271H85.4957C82.9084 115.271 80.811 117.356 80.811 119.928V119.928C80.811 122.501 82.9084 124.586 85.4957 124.586H150.117C152.704 124.586 154.802 122.501 154.802 119.928C154.802 117.356 152.704 115.271 150.117 115.271Z" fill="white" fill-opacity="0.8"/>
<path d="M150.117 130.685H85.4957C82.9084 130.685 80.811 132.77 80.811 135.342V135.342C80.811 137.915 82.9084 140 85.4957 140H150.117C152.704 140 154.802 137.915 154.802 135.342C154.802 132.77 152.704 130.685 150.117 130.685Z" fill="white" fill-opacity="0.8"/>
<path d="M74.7341 119.928C74.7341 124.868 73.2608 129.697 70.5005 133.804C67.7403 137.911 63.817 141.112 59.2269 143.002C54.6368 144.892 49.5859 145.387 44.7131 144.423C39.8402 143.46 35.3642 141.081 31.8511 137.588C28.338 134.096 25.9455 129.645 24.9762 124.801C24.0069 119.956 24.5044 114.935 26.4057 110.371C28.307 105.807 31.5267 101.907 35.6577 99.1626C39.7887 96.4184 44.6455 94.9536 49.6138 94.9536C56.2755 94.9557 62.6637 97.5876 67.3742 102.271C72.0847 106.954 74.732 113.305 74.7341 119.928Z" fill="white" fill-opacity="0.1"/>
<path d="M49.6139 145.584C43.1268 145.579 36.8801 143.143 32.1198 138.761C27.3594 134.38 24.4351 128.375 23.9302 121.945C23.4253 115.515 25.3768 109.132 29.3955 104.07C33.4143 99.0067 39.2049 95.636 45.6126 94.6297C52.0202 93.6234 58.5739 95.0554 63.9667 98.6402C69.3594 102.225 73.1948 107.699 74.708 113.971C76.2212 120.242 75.3009 126.85 72.1307 132.477C68.9605 138.104 63.7734 142.336 57.6038 144.33C55.0237 145.164 52.3271 145.587 49.6139 145.584V145.584ZM49.6139 95.6348C44.7801 95.6341 40.0546 97.0586 36.0352 99.7282C32.0158 102.398 28.8829 106.192 27.0327 110.632C25.1826 115.072 24.6983 119.958 25.6412 124.671C26.5841 129.385 28.9117 133.714 32.3297 137.113C35.7477 140.511 40.1026 142.825 44.8435 143.762C49.5845 144.7 54.4986 144.218 58.9643 142.379C63.43 140.539 67.2468 137.425 69.9319 133.429C72.6169 129.432 74.0497 124.734 74.049 119.928C74.0417 113.488 71.465 107.313 66.8841 102.758C62.3032 98.2039 56.0922 95.6421 49.6139 95.6348Z" fill="#6C63FF"/>
<defs>
<filter id="filter0_b" x="8" y="66.6614" width="161.882" height="104.208" filterUnits="userSpaceOnUse" color-interpolation-filters="sRGB">
<feFlood flood-opacity="0" result="BackgroundImageFix"/>
<feGaussianBlur in="BackgroundImage" stdDeviation="2"/>
<feComposite in2="SourceAlpha" operator="in" result="effect1_backgroundBlur"/>
<feBlend mode="normal" in="SourceGraphic" in2="effect1_backgroundBlur" result="shape"/>
</filter>
<filter id="filter1_b" x="7" y="67.6614" width="163.642" height="104.006" filterUnits="userSpaceOnUse" color-interpolation-filters="sRGB">
<feFlood flood-opacity="0" result="BackgroundImageFix"/>
<feGaussianBlur in="BackgroundImage" stdDeviation="5"/>
<feComposite in2="SourceAlpha" operator="in" result="effect1_backgroundBlur"/>
<feBlend mode="normal" in="SourceGraphic" in2="effect1_backgroundBlur" result="shape"/>
</filter>
</defs>
</svg>
